<?xml version="1.0" encoding="UTF-8"?>
<svg id="Camada_1" xmlns="http://www.w3.org/2000/svg" version="1.1" viewBox="0 0 426.6 608">
  <!-- Generator: Adobe Illustrator 30.6.0, SVG Export Plug-In . SVG Version: 2.1.4 Build 109)  -->
  <defs>
    <style>
      .st0, .st1, .st2, .st3, .st4, .st5, .st6, .st7, .st8, .st9, .st10, .st11, .st12, .st13, .st14, .st15, .st16, .st17, .st18, .st19, .st20, .st21, .st22, .st23, .st24, .st25, .st26, .st27, .st28 {
        isolation: isolate;
      }

      .st0, .st1, .st2, .st3, .st4, .st11, .st12, .st16 {
        font-size: 13px;
      }

      .st0, .st1, .st2, .st3, .st4, .st11, .st12, .st16, .st19, .st21, .st22, .st28 {
        font-family: Manrope-Bold, Manrope;
        font-weight: 700;
      }

      .st0, .st1, .st2, .st5, .st7, .st9, .st10, .st11, .st17 {
        fill: #f1480a;
      }

      .st0, .st4 {
        letter-spacing: 0em;
      }

      .st29 {
        fill: #f1f1f1;
      }

      .st1 {
        letter-spacing: 0em;
      }

      .st2, .st9, .st16, .st22, .st25 {
        letter-spacing: 0em;
      }

      .st3 {
        letter-spacing: 0em;
      }

      .st3, .st4, .st12, .st16, .st19, .st21, .st22, .st28 {
        fill: #2e4150;
      }

      .st5, .st7, .st8, .st9, .st10, .st13, .st18, .st20, .st23, .st24, .st25, .st26, .st27 {
        font-family: Manrope-Regular, Manrope;
      }

      .st5, .st7, .st9, .st10, .st13, .st18, .st19, .st20, .st21, .st22, .st23, .st24, .st25, .st28 {
        font-size: 12px;
      }

      .st5, .st18 {
        letter-spacing: 0em;
      }

      .st6, .st8, .st13, .st15, .st18, .st30, .st20, .st23, .st24, .st25, .st26, .st27 {
        fill: #818a92;
      }

      .st6, .st8, .st15, .st17, .st26, .st27 {
        font-size: 11px;
      }

      .st6, .st15, .st17 {
        font-family: ArialMT, Arial;
      }

      .st10, .st21, .st24 {
        letter-spacing: 0em;
      }

      .st31 {
        fill: #fdede8;
      }

      .st32, .st33 {
        fill: none;
      }

      .st32, .st34 {
        stroke: #ececec;
        stroke-width: 1.5px;
      }

      .st15, .st27 {
        letter-spacing: 0em;
      }

      .st33 {
        stroke: #818a92;
        stroke-miterlimit: 10;
        stroke-width: .8px;
      }

      .st34 {
        fill: #fff;
      }

      .st20 {
        letter-spacing: 0em;
      }

      .st23 {
        letter-spacing: 0em;
      }

      .st26 {
        letter-spacing: 0em;
      }

      .st28 {
        letter-spacing: 0em;
      }
    </style>
  </defs>
  <g>
    <rect class="st29" width="240" height="60" rx="6" ry="6"/>
    <g>
      <g class="st14">
        <text class="st12" transform="translate(98.1 26.7)"><tspan x="0" y="0">De</tspan></text>
        <text class="st3" transform="translate(115.2 26.7)"><tspan x="0" y="0">t</tspan></text>
        <text class="st12" transform="translate(120.6 26.7)"><tspan x="0" y="0">ect</tspan></text>
      </g>
      <g class="st14">
        <text class="st13" transform="translate(42.6 45.7)"><tspan x="0" y="0">S</tspan></text>
        <text class="st24" transform="translate(50 45.7)"><tspan x="0" y="0">e</tspan></text>
        <text class="st13" transform="translate(56.8 45.7)"><tspan x="0" y="0">nso</tspan></text>
        <text class="st24" transform="translate(77.3 45.7)"><tspan x="0" y="0">r</tspan></text>
        <text class="st13" transform="translate(81.4 45.7)"><tspan x="0" y="0">s </tspan></text>
        <text class="st18" transform="translate(90.1 45.7)"><tspan x="0" y="0">re</tspan></text>
        <text class="st13" transform="translate(101.2 45.7)"><tspan x="0" y="0">ad dist</tspan></text>
        <text class="st13" transform="translate(138.4 45.7)"><tspan x="0" y="0">r</tspan></text>
        <text class="st13" transform="translate(142.6 45.7)"><tspan x="0" y="0">ess signal</tspan></text>
      </g>
    </g>
  </g>
  <path class="st30" d="M126,84l-6,12-6-12h12Z"/>
  <g>
    <rect class="st29" y="100" width="240" height="60" rx="6" ry="6"/>
    <g>
      <g class="st14">
        <text class="st12" transform="translate(77.4 126)"><tspan x="0" y="0">Self-</tspan></text>
        <text class="st12" transform="translate(108.4 126)"><tspan x="0" y="0">r</tspan></text>
        <text class="st12" transform="translate(113.6 126)"><tspan x="0" y="0">egula</tspan></text>
        <text class="st3" transform="translate(149.3 126)"><tspan x="0" y="0">t</tspan></text>
        <text class="st12" transform="translate(154.7 126)"><tspan x="0" y="0">e</tspan></text>
      </g>
      <g class="st14">
        <text class="st13" transform="translate(42.8 145)"><tspan x="0" y="0">Lamp </tspan></text>
        <text class="st25" transform="translate(75.3 145)"><tspan x="0" y="0">c</tspan></text>
        <text class="st13" transform="translate(81.8 145)"><tspan x="0" y="0">olou</tspan></text>
        <text class="st20" transform="translate(105.9 145)"><tspan x="0" y="0">r</tspan></text>
        <text class="st13" transform="translate(109.3 145)"><tspan x="0" y="0">, sou</tspan></text>
        <text class="st13" transform="translate(135.4 145)"><tspan x="0" y="0">n</tspan></text>
        <text class="st13" transform="translate(142.5 145)"><tspan x="0" y="0">d, AI </tspan></text>
        <text class="st24" transform="translate(168 145)"><tspan x="0" y="0">v</tspan></text>
        <text class="st13" transform="translate(173.8 145)"><tspan x="0" y="0">oi</tspan></text>
        <text class="st25" transform="translate(183.7 145)"><tspan x="0" y="0">c</tspan></text>
        <text class="st13" transform="translate(190.2 145)"><tspan x="0" y="0">e</tspan></text>
      </g>
    </g>
  </g>
  <polygon class="st32" points="120 200 200 242 120 284 40 242 120 200"/>
  <g>
    <g class="st14">
      <text class="st19" transform="translate(88.9 238)"><tspan x="0" y="0">Imp</tspan></text>
      <text class="st28" transform="translate(110.9 238)"><tspan x="0" y="0">r</tspan></text>
      <text class="st22" transform="translate(115.7 238)"><tspan x="0" y="0">ov</tspan></text>
      <text class="st19" transform="translate(129.6 238)"><tspan x="0" y="0">ed?</tspan></text>
    </g>
    <g class="st14">
      <text class="st8" transform="translate(74.6 254)"><tspan x="0" y="0">within set wi</tspan></text>
      <text class="st8" transform="translate(137.7 254)"><tspan x="0" y="0">n</tspan></text>
      <text class="st8" transform="translate(144.2 254)"><tspan x="0" y="0">d</tspan></text>
      <text class="st26" transform="translate(150.7 254)"><tspan x="0" y="0">o</tspan></text>
      <text class="st8" transform="translate(157 254)"><tspan x="0" y="0">w</tspan></text>
    </g>
  </g>
  <g class="st14">
    <text class="st15" transform="translate(234.7 236)"><tspan x="0" y="0">y</tspan></text>
    <text class="st6" transform="translate(239.8 236)"><tspan x="0" y="0">es</tspan></text>
  </g>
  <g>
    <rect class="st29" x="309.4" y="210.9" width="110" height="60" rx="6" ry="6"/>
    <g>
      <g class="st14">
        <text class="st19" transform="translate(337.2 236.9)"><tspan x="0" y="0">Resol</tspan></text>
        <text class="st21" transform="translate(370.1 236.9)"><tspan x="0" y="0">v</tspan></text>
        <text class="st19" transform="translate(376.7 236.9)"><tspan x="0" y="0">ed</tspan></text>
      </g>
      <g class="st14">
        <text class="st8" transform="translate(330.2 254.9)"><tspan x="0" y="0">n</tspan></text>
        <text class="st8" transform="translate(336.7 254.9)"><tspan x="0" y="0">o es</tspan></text>
        <text class="st8" transform="translate(357.6 254.9)"><tspan x="0" y="0">c</tspan></text>
        <text class="st8" transform="translate(363.7 254.9)"><tspan x="0" y="0">alation</tspan></text>
      </g>
    </g>
  </g>
  <g class="st14">
    <text class="st6" transform="translate(136.1 299.1)"><tspan x="0" y="0">no</tspan></text>
  </g>
  <g>
    <rect class="st29" y="324" width="240" height="60" rx="6" ry="6"/>
    <g>
      <g class="st14">
        <text class="st12" transform="translate(72.6 350)"><tspan x="0" y="0">Alert </tspan></text>
        <text class="st4" transform="translate(106.9 350)"><tspan x="0" y="0">c</tspan></text>
        <text class="st12" transform="translate(114.4 350)"><tspan x="0" y="0">a</tspan></text>
        <text class="st12" transform="translate(122 350)"><tspan x="0" y="0">r</tspan></text>
        <text class="st12" transform="translate(127.2 350)"><tspan x="0" y="0">egi</tspan></text>
        <text class="st16" transform="translate(147.1 350)"><tspan x="0" y="0">v</tspan></text>
        <text class="st12" transform="translate(154.2 350)"><tspan x="0" y="0">er</tspan></text>
      </g>
      <g class="st14">
        <text class="st23" transform="translate(39.3 369)"><tspan x="0" y="0">W</tspan></text>
        <text class="st13" transform="translate(50 369)"><tspan x="0" y="0">a</tspan></text>
        <text class="st25" transform="translate(56.6 369)"><tspan x="0" y="0">t</tspan></text>
        <text class="st13" transform="translate(61.2 369)"><tspan x="0" y="0">ch vib</tspan></text>
        <text class="st24" transform="translate(93.4 369)"><tspan x="0" y="0">r</tspan></text>
        <text class="st13" transform="translate(97.5 369)"><tspan x="0" y="0">a</tspan></text>
        <text class="st25" transform="translate(104.1 369)"><tspan x="0" y="0">t</tspan></text>
        <text class="st13" transform="translate(108.7 369)"><tspan x="0" y="0">es + turns </tspan></text>
        <text class="st25" transform="translate(165.8 369)"><tspan x="0" y="0">c</tspan></text>
        <text class="st13" transform="translate(172.3 369)"><tspan x="0" y="0">olour</tspan></text>
      </g>
    </g>
  </g>
  <g>
    <polygon class="st34" points="120 424 200 466 120 508 40 466 120 424"/>
    <g>
      <g class="st14">
        <text class="st19" transform="translate(89.5 462)"><tspan x="0" y="0">Resol</tspan></text>
        <text class="st21" transform="translate(122.4 462)"><tspan x="0" y="0">v</tspan></text>
        <text class="st19" transform="translate(129 462)"><tspan x="0" y="0">ed?</tspan></text>
      </g>
      <g class="st14">
        <text class="st8" transform="translate(68.2 478)"><tspan x="0" y="0">c</tspan></text>
        <text class="st8" transform="translate(74.3 478)"><tspan x="0" y="0">a</tspan></text>
        <text class="st8" transform="translate(80.4 478)"><tspan x="0" y="0">r</tspan></text>
        <text class="st8" transform="translate(84.3 478)"><tspan x="0" y="0">egi</tspan></text>
        <text class="st26" transform="translate(99.8 478)"><tspan x="0" y="0">v</tspan></text>
        <text class="st8" transform="translate(105.1 478)"><tspan x="0" y="0">er in</tspan></text>
        <text class="st26" transform="translate(126.8 478)"><tspan x="0" y="0">t</tspan></text>
        <text class="st8" transform="translate(131 478)"><tspan x="0" y="0">er</tspan></text>
        <text class="st26" transform="translate(141.4 478)"><tspan x="0" y="0">v</tspan></text>
        <text class="st27" transform="translate(146.8 478)"><tspan x="0" y="0">e</tspan></text>
        <text class="st8" transform="translate(153.1 478)"><tspan x="0" y="0">n</tspan></text>
        <text class="st8" transform="translate(159.6 478)"><tspan x="0" y="0">es</tspan></text>
      </g>
    </g>
  </g>
  <g class="st14">
    <text class="st15" transform="translate(234.8 460)"><tspan x="0" y="0">y</tspan></text>
    <text class="st6" transform="translate(239.9 460)"><tspan x="0" y="0">es</tspan></text>
  </g>
  <g>
    <rect class="st29" x="316.6" y="436" width="110" height="60" rx="6" ry="6"/>
    <g>
      <g class="st14">
        <text class="st19" transform="translate(344.4 462)"><tspan x="0" y="0">Resol</tspan></text>
        <text class="st21" transform="translate(377.4 462)"><tspan x="0" y="0">v</tspan></text>
        <text class="st19" transform="translate(384 462)"><tspan x="0" y="0">ed</tspan></text>
      </g>
      <g class="st14">
        <text class="st8" transform="translate(331.4 480)"><tspan x="0" y="0">logged &amp; </tspan></text>
        <text class="st26" transform="translate(378.1 480)"><tspan x="0" y="0">c</tspan></text>
        <text class="st8" transform="translate(384 480)"><tspan x="0" y="0">l</tspan></text>
        <text class="st8" transform="translate(386.5 480)"><tspan x="0" y="0">o</tspan></text>
        <text class="st8" transform="translate(393 480)"><tspan x="0" y="0">sed</tspan></text>
      </g>
    </g>
  </g>
  <g class="st14">
    <text class="st17" transform="translate(131.6 528)"><tspan x="0" y="0">no</tspan></text>
  </g>
  <g>
    <rect class="st31" y="548" width="240" height="60" rx="6" ry="6"/>
    <g>
      <g class="st14">
        <text class="st11" transform="translate(56.1 574)"><tspan x="0" y="0">E</tspan></text>
        <text class="st11" transform="translate(63.8 574)"><tspan x="0" y="0">m</tspan></text>
        <text class="st11" transform="translate(75.6 574)"><tspan x="0" y="0">e</tspan></text>
        <text class="st2" transform="translate(83.5 574)"><tspan x="0" y="0">r</tspan></text>
        <text class="st11" transform="translate(88.6 574)"><tspan x="0" y="0">g</tspan></text>
        <text class="st1" transform="translate(96.7 574)"><tspan x="0" y="0">e</tspan></text>
        <text class="st1" transform="translate(104.4 574)"><tspan x="0" y="0">n</tspan></text>
        <text class="st2" transform="translate(112.6 574)"><tspan x="0" y="0">c</tspan></text>
        <text class="st11" transform="translate(119.9 574)"><tspan x="0" y="0">y servi</tspan></text>
        <text class="st0" transform="translate(161.5 574)"><tspan x="0" y="0">c</tspan></text>
        <text class="st11" transform="translate(168.9 574)"><tspan x="0" y="0">es</tspan></text>
      </g>
      <g class="st14">
        <text class="st7" transform="translate(16.8 593)"><tspan x="0" y="0">Human ag</tspan></text>
        <text class="st5" transform="translate(72.2 593)"><tspan x="0" y="0">e</tspan></text>
        <text class="st7" transform="translate(79.1 593)"><tspan x="0" y="0">n</tspan></text>
        <text class="st9" transform="translate(86.1 593)"><tspan x="0" y="0">c</tspan></text>
        <text class="st7" transform="translate(92.6 593)"><tspan x="0" y="0">y p</tspan></text>
        <text class="st7" transform="translate(108.4 593)"><tspan x="0" y="0">r</tspan></text>
        <text class="st7" transform="translate(112.6 593)"><tspan x="0" y="0">eser</tspan></text>
        <text class="st10" transform="translate(137.2 593)"><tspan x="0" y="0">v</tspan></text>
        <text class="st7" transform="translate(143.1 593)"><tspan x="0" y="0">ed th</tspan></text>
        <text class="st7" transform="translate(171.6 593)"><tspan x="0" y="0">r</tspan></text>
        <text class="st7" transform="translate(175.8 593)"><tspan x="0" y="0">oughout</tspan></text>
      </g>
    </g>
  </g>
  <g>
    <path class="st30" d="M290.9,236l12,6-12,6v-12Z"/>
    <line class="st33" x1="207.4" y1="242" x2="290.9" y2="242"/>
  </g>
  <g>
    <path class="st30" d="M290.9,460l12,6-12,6v-12Z"/>
    <line class="st33" x1="206.4" y1="466" x2="291.3" y2="466"/>
  </g>
  <line class="st33" x1="120" y1="84.9" x2="120" y2="62"/>
  <g>
    <path class="st30" d="M126,184l-6,12-6-12h12Z"/>
    <line class="st33" x1="120" y1="184.9" x2="120" y2="162"/>
  </g>
  <g>
    <path class="st30" d="M126,308l-6,12-6-12h12Z"/>
    <line class="st33" x1="120" y1="308" x2="120" y2="287.5"/>
  </g>
  <g>
    <path class="st30" d="M126,408l-6,12-6-12h12Z"/>
    <line class="st33" x1="120" y1="408" x2="120" y2="386.3"/>
  </g>
  <g>
    <path class="st30" d="M126,532l-6,12-6-12h12Z"/>
    <line class="st33" x1="120" y1="532" x2="120" y2="513.4"/>
  </g>
</svg>