<?xml version="1.0" encoding="UTF-8"?>
<svg id="Camada_1" xmlns="http://www.w3.org/2000/svg" version="1.1" viewBox="0 0 1000 390.8">
  <!-- Generator: Adobe Illustrator 30.6.0, SVG Export Plug-In . SVG Version: 2.1.4 Build 109)  -->
  <defs>
    <style>
      .st0, .st1, .st2, .st3, .st4, .st5 {
        isolation: isolate;
      }

      .st0, .st1, .st5 {
        font-family: Manrope-ExtraBold, Manrope;
        font-size: 12px;
        font-weight: 700;
      }

      .st0, .st3 {
        fill: #f1480a;
      }

      .st6 {
        letter-spacing: 0em;
      }

      .st6, .st7, .st8 {
        font-family: MyriadPro-Regular, 'Myriad Pro';
      }

      .st9 {
        font-family: AppleBraille-Outline6Dot, 'Apple Braille';
      }

      .st1, .st5 {
        fill: #2e4150;
      }

      .st2 {
        fill: #818a92;
      }

      .st2, .st3 {
        font-family: Manrope-Regular, Manrope;
      }

      .st2, .st3, .st4 {
        font-size: 11px;
      }

      .st10 {
        fill: #f6fafc;
      }

      .st7 {
        letter-spacing: 0em;
      }

      .st11 {
        stroke-dasharray: 2 3;
      }

      .st11, .st12, .st13 {
        fill: none;
      }

      .st11, .st13 {
        stroke: #818a92;
      }

      .st12 {
        stroke-dasharray: 3 4;
      }

      .st12, .st14 {
        stroke: #ececec;
      }

      .st13 {
        stroke-width: 1.5px;
      }

      .st4 {
        fill: #a6adb3;
      }

      .st5 {
        letter-spacing: 0em;
      }

      .st15 {
        fill: #fdede8;
        stroke: #f1480a;
      }

      .st16 {
        fill: #fbf9f7;
      }

      .st14 {
        fill: #fff;
      }
    </style>
  </defs>
  <rect class="st16" width="1000" height="170"/>
  <rect class="st10" y="190" width="1000" height="170"/>
  <text class="st5" transform="translate(24 30.3)"><tspan x="0" y="0">PATIENT</tspan></text>
  <text class="st5" transform="translate(24.8 222.4)"><tspan x="0" y="0">CAREGIVER</tspan></text>
  <line class="st12" x1="230" y1="0" x2="230" y2="360"/>
  <line class="st12" x1="470" y1="0" x2="470" y2="360"/>
  <line class="st12" x1="720" y1="0" x2="720" y2="360"/>
  <g>
    <g>
      <rect class="st14" x="24" y="50" width="180" height="70" rx="6" ry="6"/>
      <g>
        <text class="st1" transform="translate(88.8 78)"><tspan x="0" y="0">Baseline</tspan></text>
        <text class="st2" transform="translate(66.7 96)"><tspan x="0" y="0">calm, neutral state</tspan></text>
      </g>
    </g>
    <g>
      <rect class="st14" x="254" y="50" width="190" height="70" rx="6" ry="6"/>
      <g>
        <text class="st1" transform="translate(303.2 78)"><tspan x="0" y="0">Distress begins</tspan></text>
        <text class="st2" transform="translate(270.7 96)"><tspan x="0" y="0">posture, sound, breathing shift</tspan></text>
      </g>
    </g>
    <g>
      <rect class="st14" x="495" y="50" width="200" height="70" rx="6" ry="6"/>
      <g>
        <text class="st1" transform="translate(536 78)"><tspan x="0" y="0">Lamp self-regulates</tspan></text>
        <text class="st2" transform="translate(539.1 96)"><tspan x="0" y="0">colour, sound, AI voice</tspan></text>
      </g>
    </g>
    <g>
      <rect class="st14" x="744" y="50" width="230" height="70" rx="6" ry="6"/>
      <g>
        <text class="st1" transform="translate(805.9 78)"><tspan x="0" y="0">Calms, or persists</tspan></text>
        <text class="st2" transform="translate(792.1 96)"><tspan x="0" y="0">branches to caregiver lane</tspan></text>
      </g>
    </g>
    <line class="st13" x1="204" y1="85" x2="254" y2="85"/>
    <line class="st13" x1="444" y1="85" x2="494" y2="85"/>
    <line class="st13" x1="694" y1="85" x2="744" y2="85"/>
  </g>
  <g>
    <g>
      <rect class="st14" x="24.4" y="240" width="180" height="70" rx="6" ry="6"/>
      <g>
        <text class="st1" transform="translate(70.5 268)"><tspan x="0" y="0">Watch: neutral</tspan></text>
        <text class="st2" transform="translate(78.5 286)"><tspan x="0" y="0">white, no alert</tspan></text>
      </g>
    </g>
    <g>
      <rect class="st14" x="254" y="240" width="190" height="70" rx="6" ry="6"/>
      <g>
        <text class="st1" transform="translate(293.9 268)"><tspan x="0" y="0">Watch: monitoring</tspan></text>
        <text class="st2" transform="translate(275.7 286)"><tspan x="0" y="0">colour shifts, no vibration yet</tspan></text>
      </g>
    </g>
    <g>
      <rect class="st15" x="494" y="240" width="200" height="70" rx="6" ry="6"/>
      <g>
        <text class="st0" transform="translate(549.6 268)"><tspan x="0" y="0">Watch vibrates</tspan></text>
        <text class="st3" transform="translate(519.7 286)"><tspan x="0" y="0">if self-regulation isn’t enough</tspan></text>
      </g>
    </g>
    <g>
      <rect class="st14" x="744" y="240" width="230" height="70" rx="6" ry="6"/>
      <g>
        <text class="st1" transform="translate(801.1 268)"><tspan x="0" y="0">Caregiver checks in</tspan></text>
        <text class="st2" transform="translate(798.9 286)"><tspan x="0" y="0">comforts, logs outcome</tspan></text>
      </g>
    </g>
    <line class="st13" x1="204" y1="275" x2="254" y2="275"/>
    <line class="st13" x1="444" y1="275" x2="494" y2="275"/>
    <line class="st13" x1="694" y1="275" x2="744" y2="275"/>
  </g>
  <line class="st11" x1="594" y1="120" x2="594" y2="240"/>
  <line class="st11" x1="859" y1="120" x2="859" y2="240"/>
  <text class="st4" transform="translate(368.4 388)"><tspan class="st8" x="0" y="0">Two</tspan><tspan class="st9" x="19.6" y="0"> </tspan><tspan class="st6" x="23.4" y="0">lived</tspan><tspan class="st9" x="45.5" y="0"> </tspan><tspan class="st8" x="49.3" y="0">experiences</tspan><tspan class="st9" x="104.3" y="0"> </tspan><tspan class="st8" x="108" y="0">of</tspan><tspan class="st9" x="117.3" y="0"> </tspan><tspan class="st8" x="121" y="0">one</tspan><tspan class="st9" x="138.7" y="0"> </tspan><tspan class="st8" x="142.4" y="0">emotional</tspan><tspan class="st9" x="189.4" y="0"> </tspan><tspan class="st8" x="193.2" y="0">episode,</tspan><tspan class="st9" x="231.9" y="0"> </tspan><tspan class="st7" x="235.7" y="0">unfolding</tspan><tspan class="st9" x="280.7" y="0"> </tspan><tspan class="st6" x="284.5" y="0">in</tspan><tspan class="st9" x="293.2" y="0"> </tspan><tspan class="st8" x="296.9" y="0">parallel.</tspan></text>
</svg>