<?xml version="1.0" encoding="UTF-8"?>
<svg id="Camada_1" data-name="Camada 1" xmlns="http://www.w3.org/2000/svg" viewBox="0 0 841.86 773.25">
  <defs>
    <style>
      .cls-1 {
        fill: #f1f1f1;
      }

      .cls-2, .cls-3, .cls-4 {
        font-family: Manrope-ExtraBold, Manrope;
        font-weight: 700;
      }

      .cls-2, .cls-3, .cls-4, .cls-5, .cls-6 {
        isolation: isolate;
      }

      .cls-2, .cls-4 {
        fill: #2e4150;
      }

      .cls-2, .cls-5, .cls-6 {
        font-size: 11px;
      }

      .cls-3, .cls-4 {
        font-size: 12px;
      }

      .cls-3, .cls-6 {
        fill: #f1480a;
      }

      .cls-5, .cls-6 {
        font-family: Manrope-Regular, Manrope;
      }

      .cls-5, .cls-7 {
        fill: #818a92;
      }

      .cls-8 {
        fill: #fdede8;
      }

      .cls-9 {
        letter-spacing: 0em;
      }

      .cls-10 {
        letter-spacing: 0em;
      }

      .cls-11 {
        fill: #fff;
        stroke: #ececec;
        stroke-width: 1.5px;
      }

      .cls-12 {
        letter-spacing: 0em;
      }

      .cls-13 {
        letter-spacing: 0em;
      }

      .cls-14 {
        letter-spacing: -.06em;
      }

      .cls-15 {
        letter-spacing: -.02em;
      }

      .cls-16 {
        letter-spacing: -.02em;
      }

      .cls-17 {
        letter-spacing: -.02em;
      }

      .cls-18 {
        letter-spacing: -.02em;
      }

      .cls-19 {
        letter-spacing: -.01em;
      }

      .cls-20 {
        letter-spacing: -.02em;
      }

      .cls-21 {
        letter-spacing: -.05em;
      }

      .cls-22 {
        fill: none;
        stroke: #818a92;
        stroke-miterlimit: 10;
      }

      .cls-23 {
        letter-spacing: -.03em;
      }

      .cls-24 {
        letter-spacing: 0em;
      }

      .cls-25 {
        letter-spacing: 0em;
      }

      .cls-26 {
        letter-spacing: 0em;
      }

      .cls-27 {
        letter-spacing: -.01em;
      }

      .cls-28 {
        letter-spacing: -.01em;
      }

      .cls-29 {
        letter-spacing: 0em;
      }

      .cls-30 {
        letter-spacing: 0em;
      }

      .cls-31 {
        letter-spacing: 0em;
      }

      .cls-32 {
        letter-spacing: 0em;
      }
    </style>
  </defs>
  <g>
    <rect class="cls-1" x="27.25" width="200" height="56" rx="6" ry="6"/>
    <g>
      <text class="cls-4" transform="translate(104.28 24)"><tspan x="0" y="0">Ca</tspan><tspan class="cls-31" x="15.95" y="0">m</tspan><tspan class="cls-9" x="26.82" y="0">e</tspan><tspan class="cls-31" x="34.12" y="0">r</tspan><tspan x="38.94" y="0">a</tspan></text>
      <text class="cls-5" transform="translate(64.3 42)"><tspan x="0" y="0">p</tspan><tspan class="cls-24" x="6.51" y="0">o</tspan><tspan x="12.96" y="0">stu</tspan><tspan class="cls-30" x="29.68" y="0">r</tspan><tspan class="cls-15" x="33.53" y="0">e</tspan><tspan x="39.74" y="0">, </tspan><tspan class="cls-25" x="44.86" y="0">m</tspan><tspan class="cls-15" x="54.15" y="0">ov</tspan><tspan class="cls-18" x="65.81" y="0">e</tspan><tspan class="cls-26" x="72.07" y="0">m</tspan><tspan class="cls-19" x="81.36" y="0">e</tspan><tspan class="cls-10" x="87.63" y="0">nt, </tspan><tspan class="cls-18" x="103.69" y="0">f</tspan><tspan x="107.42" y="0">a</tspan><tspan class="cls-19" x="113.53" y="0">c</tspan><tspan x="119.45" y="0">e</tspan></text>
    </g>
  </g>
  <g>
    <rect class="cls-1" x="281.4" width="200" height="56" rx="6" ry="6"/>
    <g>
      <text class="cls-4" transform="translate(332.29 24)"><tspan class="cls-14" x="0" y="0">W</tspan><tspan class="cls-27" x="11.15" y="0">e</tspan><tspan x="18.32" y="0">a</tspan><tspan class="cls-27" x="25.32" y="0">r</tspan><tspan x="30.14" y="0">able s</tspan><tspan class="cls-17" x="64.44" y="0">e</tspan><tspan x="71.56" y="0">nsor</tspan></text>
      <text class="cls-5" transform="translate(311.08 42)"><tspan x="0" y="0">h</tspan><tspan class="cls-30" x="6.53" y="0">e</tspan><tspan x="12.85" y="0">art </tspan><tspan class="cls-15" x="29.53" y="0">r</tspan><tspan x="33.28" y="0">a</tspan><tspan class="cls-15" x="39.39" y="0">te</tspan><tspan x="49.79" y="0">, skin </tspan><tspan class="cls-15" x="77.44" y="0">t</tspan><tspan class="cls-19" x="81.62" y="0">e</tspan><tspan class="cls-10" x="87.89" y="0">m</tspan><tspan class="cls-15" x="97.22" y="0">p</tspan><tspan x="103.51" y="0">, st</tspan><tspan class="cls-30" x="118.81" y="0">r</tspan><tspan class="cls-13" x="122.67" y="0">ess</tspan></text>
    </g>
  </g>
  <g>
    <rect class="cls-1" x="164.5" y="116.88" width="220" height="56" rx="6" ry="6"/>
    <g>
      <text class="cls-4" transform="translate(235.9 140.88)"><tspan x="0" y="0">Signal fusion</tspan></text>
      <text class="cls-5" transform="translate(194.08 158.88)"><tspan class="cls-18" x="0" y="0">c</tspan><tspan x="5.92" y="0">ombi</tspan><tspan class="cls-26" x="30.84" y="0">n</tspan><tspan class="cls-13" x="37.33" y="0">es both s</tspan><tspan class="cls-19" x="83.67" y="0">e</tspan><tspan class="cls-10" x="89.94" y="0">nsing sou</tspan><tspan class="cls-28" x="138.87" y="0">r</tspan><tspan class="cls-19" x="142.73" y="0">c</tspan><tspan x="148.65" y="0">es</tspan></text>
    </g>
  </g>
  <path class="cls-7" d="M280.5,196.88l-6,12-6-12h12Z"/>
  <g>
    <rect class="cls-1" x="164.5" y="212.88" width="220" height="56" rx="6" ry="6"/>
    <g>
      <text class="cls-4" transform="translate(208.39 236.88)"><tspan x="0" y="0">E</tspan><tspan class="cls-27" x="7.08" y="0">m</tspan><tspan x="17.95" y="0">otion </tspan><tspan class="cls-17" x="51.91" y="0">c</tspan><tspan class="cls-12" x="58.73" y="0">lassifi</tspan><tspan class="cls-27" x="94.32" y="0">c</tspan><tspan class="cls-9" x="101.19" y="0">ation</tspan></text>
      <text class="cls-5" transform="translate(215.15 254.88)"><tspan x="0" y="0">ma</tspan><tspan class="cls-24" x="15.44" y="0">p</tspan><tspan x="21.9" y="0">s </tspan><tspan class="cls-20" x="29.87" y="0">t</tspan><tspan x="34.06" y="0">o o</tspan><tspan class="cls-32" x="49.27" y="0">n</tspan><tspan x="55.76" y="0">e of 6 sta</tspan><tspan class="cls-20" x="102.32" y="0">t</tspan><tspan x="106.5" y="0">es</tspan></text>
    </g>
  </g>
  <path class="cls-7" d="M280.5,290.88l-6,12-6-12h12Z"/>
  <g>
    <polygon class="cls-11" points="274.5 308.64 344.5 346.64 274.5 384.64 204.5 346.64 274.5 308.64"/>
    <text class="cls-2" transform="translate(246.98 343.04)"><tspan x="0" y="0">Confid</tspan><tspan class="cls-18" x="36.64" y="0">e</tspan><tspan x="43.16" y="0">nt</tspan><tspan class="cls-30" x="3.72" y="13.2">re</tspan><tspan class="cls-10" x="14.72" y="13.2">ading?</tspan></text>
  </g>
  <path class="cls-7" d="M151.33,133.51l11.94,6.12-12.06,5.88.12-12Z"/>
  <text class="cls-5" transform="translate(13.94 225.36)"><tspan x="0" y="0">l</tspan><tspan class="cls-15" x="2.57" y="0">o</tspan><tspan x="8.85" y="0">w </tspan><tspan class="cls-19" x="19.5" y="0">c</tspan><tspan x="25.42" y="0">onfid</tspan><tspan class="cls-19" x="51.61" y="0">e</tspan><tspan class="cls-32" x="57.88" y="0">n</tspan><tspan class="cls-18" x="64.37" y="0">c</tspan><tspan x="70.29" y="0">e:</tspan><tspan class="cls-28" x="0" y="13.2">k</tspan><tspan class="cls-13" x="5.35" y="13.2">e</tspan><tspan class="cls-18" x="11.78" y="13.2">e</tspan><tspan class="cls-13" x="18.04" y="13.2">p </tspan><tspan class="cls-26" x="26.75" y="13.2">m</tspan><tspan x="36.04" y="13.2">oni</tspan><tspan class="cls-15" x="51.65" y="13.2">t</tspan><tspan x="55.84" y="13.2">oring</tspan></text>
  <path class="cls-7" d="M540.69,340.64l12,6-12,6v-12Z"/>
  <text class="cls-5" transform="translate(416.69 337.36)"><tspan class="cls-18" x="0" y="0">c</tspan><tspan x="5.92" y="0">onfid</tspan><tspan class="cls-18" x="32.11" y="0">e</tspan><tspan class="cls-13" x="38.38" y="0">nt</tspan></text>
  <g>
    <rect class="cls-1" x="564.57" y="316.64" width="240" height="60" rx="6" ry="6"/>
    <g>
      <text class="cls-4" transform="translate(629.49 340.64)"><tspan x="0" y="0">Multi</tspan><tspan class="cls-27" x="30.38" y="0">m</tspan><tspan class="cls-12" x="41.25" y="0">odal output</tspan></text>
      <text class="cls-5" transform="translate(612.44 358.64)"><tspan x="0" y="0">lamp </tspan><tspan class="cls-18" x="26.72" y="0">c</tspan><tspan x="32.64" y="0">olour + haptic + sou</tspan><tspan class="cls-26" x="131.24" y="0">n</tspan><tspan x="137.73" y="0">d</tspan></text>
    </g>
  </g>
  <path class="cls-7" d="M690.57,400.36l-6,12-6-12h12Z"/>
  <g>
    <polygon class="cls-11" points="684.57 416.8 764.57 458.8 684.57 500.8 604.57 458.8 684.57 416.8"/>
    <text class="cls-2" transform="translate(656.08 455.19)"><tspan class="cls-21" x="0" y="0">T</tspan><tspan class="cls-30" x="6.16" y="0">r</tspan><tspan class="cls-18" x="10.58" y="0">e</tspan><tspan class="cls-28" x="17.1" y="0">n</tspan><tspan x="23.99" y="0">d </tspan><tspan class="cls-15" x="33.07" y="0">ov</tspan><tspan class="cls-10" x="45.77" y="0">er</tspan><tspan x="-8.9" y="13.2">ti</tspan><tspan class="cls-30" x="-.76" y="13.2">m</tspan><tspan x="9.21" y="13.2">e wi</tspan><tspan class="cls-29" x="30.3" y="13.2">n</tspan><tspan x="37.19" y="13.2">d</tspan><tspan class="cls-16" x="44.07" y="13.2">o</tspan><tspan x="50.74" y="13.2">w?</tspan></text>
  </g>
  <path class="cls-7" d="M509.27,34.5l-10.45-8.42,13-3.3-2.56,11.72Z"/>
  <text class="cls-5" transform="translate(739.05 132.06)"><tspan x="0" y="0">stable or imp</tspan><tspan class="cls-30" x="65.08" y="0">r</tspan><tspan class="cls-15" x="68.94" y="0">o</tspan><tspan x="75.22" y="0">ving:</tspan><tspan class="cls-18" x="0" y="13.2">c</tspan><tspan x="5.92" y="13.2">ontinue </tspan><tspan class="cls-26" x="47.63" y="13.2">m</tspan><tspan x="56.92" y="13.2">oni</tspan><tspan class="cls-15" x="72.53" y="13.2">t</tspan><tspan x="76.72" y="13.2">oring</tspan></text>
  <path class="cls-7" d="M416.69,464.8l-12-6,12-6v12Z"/>
  <text class="cls-6" transform="translate(465.61 449.25)"><tspan class="cls-15" x="0" y="0">w</tspan><tspan x="8.22" y="0">o</tspan><tspan class="cls-15" x="14.73" y="0">r</tspan><tspan x="18.47" y="0">s</tspan><tspan class="cls-18" x="24.25" y="0">e</tspan><tspan x="30.51" y="0">ning</tspan></text>
  <g>
    <rect class="cls-8" x="154.5" y="428.8" width="240" height="60" rx="6" ry="6"/>
    <g>
      <text class="cls-3" transform="translate(249.34 452.8)"><tspan x="0" y="0">Es</tspan><tspan class="cls-27" x="13.64" y="0">c</tspan><tspan class="cls-9" x="20.52" y="0">ala</tspan><tspan class="cls-23" x="38.06" y="0">t</tspan><tspan x="43.03" y="0">e</tspan></text>
      <text class="cls-6" transform="translate(195.79 470.8)"><tspan class="cls-18" x="0" y="0">c</tspan><tspan x="5.92" y="0">ontinues in es</tspan><tspan class="cls-26" x="76.92" y="0">c</tspan><tspan class="cls-13" x="82.97" y="0">alation logi</tspan><tspan class="cls-15" x="138.12" y="0">c</tspan><tspan x="143.99" y="0">.</tspan></text>
    </g>
  </g>
  <g>
    <path class="cls-7" d="M221.73,100.57l2.97,13.08-12.25-5.47,9.28-7.61Z"/>
    <line class="cls-22" x1="216.7" y1="104.7" x2="172.65" y2="58.72"/>
  </g>
  <g>
    <path class="cls-7" d="M320.45,108.83l-12.52,4.82,3.65-12.91,8.87,8.09Z"/>
    <line class="cls-22" x1="316.48" y1="105.43" x2="356.89" y2="58.72"/>
  </g>
  <line class="cls-22" x1="274.5" y1="196.88" x2="274.5" y2="177.24"/>
  <line class="cls-22" x1="274.5" y1="290.88" x2="274.5" y2="272.62"/>
  <line class="cls-22" x1="416.69" y1="458.8" x2="590.06" y2="458.8"/>
  <line class="cls-22" x1="540.69" y1="346.64" x2="355.79" y2="346.64"/>
  <line class="cls-22" x1="684.57" y1="400.36" x2="684.57" y2="380.7"/>
  <path class="cls-22" d="M779.47,455.19c44.51-44.3,57.76-83.52,57.97-107.04,1.02-111.27-115.23-253.75-326.81-319.91"/>
  <path class="cls-22" d="M184.99,352.64C63.38,336.16-5.98,266.47.98,220.52c5.68-37.5,79.6-70.7,150.23-81.01"/>
</svg>