<svg xmlns="http://www.w3.org/2000/svg" id="Camada_1" viewBox="0 0 841.9 501.6"><defs><style>.st0{fill:#f1f1f1}.st1,.st13,.st14,.st15,.st17,.st19,.st2,.st22,.st3,.st6,.st7,.st8,.st9{isolation:isolate}.st1,.st13,.st17,.st19,.st2,.st3,.st6,.st8{font-size:11px}.st1,.st14,.st15,.st2,.st22,.st3,.st7{font-family:Manrope-Bold,Manrope;font-weight:700}.st1,.st14,.st15,.st2,.st22,.st3{fill:#2e4150}.st13,.st17,.st19,.st2,.st3{letter-spacing:0}.st13,.st17,.st19,.st6,.st8{font-family:Manrope-Regular,Manrope}.st17,.st19,.st23,.st6{fill:#818a92}.st13,.st7,.st8{fill:#f1480a}.st14,.st15,.st22,.st7{font-size:12px}.st25{fill:#fff;stroke:#ececec;stroke-width:1.5px}.st22{letter-spacing:0}.st26{fill:none;stroke:#818a92;stroke-miterlimit:10}.st15{letter-spacing:0}</style></defs><rect width="200" height="56" x="27.2" class="st0" rx="6" ry="6"/><g class="st9"><text class="st14" transform="translate(104.3 24)"><tspan x="0" y="0">Ca</tspan></text><text class="st14" transform="translate(120.2 24)"><tspan x="0" y="0">m</tspan></text><text class="st14" transform="translate(131.1 24)"><tspan x="0" y="0">e</tspan></text><text class="st14" transform="translate(138.4 24)"><tspan x="0" y="0">r</tspan></text><text class="st14" transform="translate(143.2 24)"><tspan x="0" y="0">a</tspan></text></g><g class="st9"><text class="st6" transform="translate(64.3 42)"><tspan x="0" y="0">p</tspan></text><text class="st6" transform="translate(70.8 42)"><tspan x="0" y="0">o</tspan></text><text class="st6" transform="translate(77.3 42)"><tspan x="0" y="0">stu</tspan></text><text class="st6" transform="translate(94 42)"><tspan x="0" y="0">r</tspan></text><text class="st17" transform="translate(97.8 42)"><tspan x="0" y="0">e</tspan></text><text class="st6" transform="translate(104 42)"><tspan x="0" y="0">, </tspan></text><text class="st6" transform="translate(109.2 42)"><tspan x="0" y="0">m</tspan></text><text class="st17" transform="translate(118.4 42)"><tspan x="0" y="0">ov</tspan></text><text class="st17" transform="translate(130.1 42)"><tspan x="0" y="0">e</tspan></text><text class="st6" transform="translate(136.4 42)"><tspan x="0" y="0">m</tspan></text><text class="st19" transform="translate(145.7 42)"><tspan x="0" y="0">e</tspan></text><text class="st6" transform="translate(151.9 42)"><tspan x="0" y="0">nt, </tspan></text><text style="isolation:isolate;font-size:11px;letter-spacing:0;font-family:Manrope-Regular,Manrope;fill:#818a92" transform="translate(168 42)"><tspan x="0" y="0">f</tspan></text><text class="st6" transform="translate(171.7 42)"><tspan x="0" y="0">a</tspan></text><text class="st19" transform="translate(177.8 42)"><tspan x="0" y="0">c</tspan></text><text class="st6" transform="translate(183.7 42)"><tspan x="0" y="0">e</tspan></text></g><rect width="200" height="56" x="281.4" class="st0" rx="6" ry="6"/><g class="st9"><text style="isolation:isolate;font-family:Manrope-Bold,Manrope;font-weight:700;fill:#2e4150;font-size:12px;letter-spacing:0" transform="translate(332.3 24)"><tspan x="0" y="0">W</tspan></text><text style="isolation:isolate;font-family:Manrope-Bold,Manrope;font-weight:700;fill:#2e4150;font-size:12px;letter-spacing:0" transform="translate(343.4 24)"><tspan x="0" y="0">e</tspan></text><text class="st14" transform="translate(350.6 24)"><tspan x="0" y="0">a</tspan></text><text class="st22" transform="translate(357.6 24)"><tspan x="0" y="0">r</tspan></text><text class="st14" transform="translate(362.4 24)"><tspan x="0" y="0">able s</tspan></text><text class="st15" transform="translate(396.7 24)"><tspan x="0" y="0">e</tspan></text><text class="st14" transform="translate(403.8 24)"><tspan x="0" y="0">nsor</tspan></text></g><g class="st9"><text class="st6" transform="translate(311.1 42)"><tspan x="0" y="0">h</tspan></text><text class="st6" transform="translate(317.6 42)"><tspan x="0" y="0">e</tspan></text><text class="st6" transform="translate(323.9 42)"><tspan x="0" y="0">art </tspan></text><text class="st17" transform="translate(340.6 42)"><tspan x="0" y="0">r</tspan></text><text class="st6" transform="translate(344.4 42)"><tspan x="0" y="0">a</tspan></text><text class="st17" transform="translate(350.5 42)"><tspan x="0" y="0">te</tspan></text><text class="st6" transform="translate(360.9 42)"><tspan x="0" y="0">, skin </tspan></text><text class="st17" transform="translate(388.5 42)"><tspan x="0" y="0">t</tspan></text><text class="st19" transform="translate(392.7 42)"><tspan x="0" y="0">e</tspan></text><text class="st6" transform="translate(399 42)"><tspan x="0" y="0">m</tspan></text><text class="st17" transform="translate(408.3 42)"><tspan x="0" y="0">p</tspan></text><text class="st6" transform="translate(414.6 42)"><tspan x="0" y="0">, st</tspan></text><text class="st6" transform="translate(429.9 42)"><tspan x="0" y="0">r</tspan></text><text class="st6" transform="translate(433.7 42)"><tspan x="0" y="0">ess</tspan></text></g><rect width="220" height="56" x="164.5" y="116.9" class="st0" rx="6" ry="6"/><g class="st9"><text class="st14" transform="translate(235.9 140.9)"><tspan x="0" y="0">Signal fusion</tspan></text></g><g class="st9"><text class="st17" transform="translate(194.1 158.9)"><tspan x="0" y="0">c</tspan></text><text class="st6" transform="translate(200 158.9)"><tspan x="0" y="0">ombi</tspan></text><text class="st6" transform="translate(224.9 158.9)"><tspan x="0" y="0">n</tspan></text><text class="st6" transform="translate(231.4 158.9)"><tspan x="0" y="0">es both s</tspan></text><text class="st19" transform="translate(277.7 158.9)"><tspan x="0" y="0">e</tspan></text><text class="st6" transform="translate(284 158.9)"><tspan x="0" y="0">nsing sou</tspan></text><text class="st19" transform="translate(332.9 158.9)"><tspan x="0" y="0">r</tspan></text><text class="st19" transform="translate(336.8 158.9)"><tspan x="0" y="0">c</tspan></text><text class="st6" transform="translate(342.7 158.9)"><tspan x="0" y="0">es</tspan></text></g><path d="m280.5 196.9-6 12-6-12z" class="st23"/><rect width="220" height="56" x="164.5" y="212.9" class="st0" rx="6" ry="6"/><g class="st9"><text class="st14" transform="translate(208.4 236.9)"><tspan x="0" y="0">E</tspan></text><text class="st22" transform="translate(215.5 236.9)"><tspan x="0" y="0">m</tspan></text><text class="st14" transform="translate(226.3 236.9)"><tspan x="0" y="0">otion </tspan></text><text class="st15" transform="translate(260.3 236.9)"><tspan x="0" y="0">c</tspan></text><text class="st14" transform="translate(267.1 236.9)"><tspan x="0" y="0">lassifi</tspan></text><text class="st22" transform="translate(302.7 236.9)"><tspan x="0" y="0">c</tspan></text><text class="st14" transform="translate(309.6 236.9)"><tspan x="0" y="0">ation</tspan></text></g><g class="st9"><text class="st6" transform="translate(215.1 254.9)"><tspan x="0" y="0">ma</tspan></text><text class="st6" transform="translate(230.6 254.9)"><tspan x="0" y="0">p</tspan></text><text class="st6" transform="translate(237 254.9)"><tspan x="0" y="0">s </tspan></text><text class="st17" transform="translate(245 254.9)"><tspan x="0" y="0">t</tspan></text><text class="st6" transform="translate(249.2 254.9)"><tspan x="0" y="0">o o</tspan></text><text class="st6" transform="translate(264.4 254.9)"><tspan x="0" y="0">n</tspan></text><text class="st6" transform="translate(270.9 254.9)"><tspan x="0" y="0">e of 6 sta</tspan></text><text class="st17" transform="translate(317.5 254.9)"><tspan x="0" y="0">t</tspan></text><text class="st6" transform="translate(321.6 254.9)"><tspan x="0" y="0">es</tspan></text></g><path d="m280.5 290.9-6 12-6-12z" class="st23"/><path d="m274.5 308.6 70 38-70 38-70-38z" class="st25"/><g class="st9"><text class="st1" transform="translate(247 343)"><tspan x="0" y="0">Confid</tspan></text><text class="st3" transform="translate(283.6 343)"><tspan x="0" y="0">e</tspan></text><text class="st1" transform="translate(290.1 343)"><tspan x="0" y="0">nt</tspan></text><text class="st1" transform="translate(250.7 356.2)"><tspan x="0" y="0">re</tspan></text><text class="st1" transform="translate(261.7 356.2)"><tspan x="0" y="0">ading?</tspan></text></g><path d="m151.3 133.5 11.9 6.1-12.1 5.9v-12Z" class="st23"/><g class="st9"><text class="st6" transform="translate(13.9 225.4)"><tspan x="0" y="0">l</tspan></text><text class="st17" transform="translate(16.5 225.4)"><tspan x="0" y="0">o</tspan></text><text class="st6" transform="translate(22.8 225.4)"><tspan x="0" y="0">w </tspan></text><text class="st19" transform="translate(33.4 225.4)"><tspan x="0" y="0">c</tspan></text><text class="st6" transform="translate(39.4 225.4)"><tspan x="0" y="0">onfid</tspan></text><text class="st19" transform="translate(65.5 225.4)"><tspan x="0" y="0">e</tspan></text><text class="st6" transform="translate(71.8 225.4)"><tspan x="0" y="0">n</tspan></text><text class="st17" transform="translate(78.3 225.4)"><tspan x="0" y="0">c</tspan></text><text class="st6" transform="translate(84.2 225.4)"><tspan x="0" y="0">e:</tspan></text><text style="isolation:isolate;font-size:11px;font-family:Manrope-Regular,Manrope;fill:#818a92;letter-spacing:0" transform="translate(13.9 238.6)"><tspan x="0" y="0">k</tspan></text><text class="st6" transform="translate(19.3 238.6)"><tspan x="0" y="0">e</tspan></text><text class="st17" transform="translate(25.7 238.6)"><tspan x="0" y="0">e</tspan></text><text class="st6" transform="translate(32 238.6)"><tspan x="0" y="0">p </tspan></text><text class="st6" transform="translate(40.7 238.6)"><tspan x="0" y="0">m</tspan></text><text class="st6" transform="translate(50 238.6)"><tspan x="0" y="0">oni</tspan></text><text class="st17" transform="translate(65.6 238.6)"><tspan x="0" y="0">t</tspan></text><text class="st6" transform="translate(69.8 238.6)"><tspan x="0" y="0">oring</tspan></text></g><path d="m540.7 340.6 12 6-12 6z" class="st23"/><g class="st9"><text class="st17" transform="translate(416.7 337.4)"><tspan x="0" y="0">c</tspan></text><text class="st6" transform="translate(422.6 337.4)"><tspan x="0" y="0">onfid</tspan></text><text class="st17" transform="translate(448.8 337.4)"><tspan x="0" y="0">e</tspan></text><text class="st6" transform="translate(455.1 337.4)"><tspan x="0" y="0">nt</tspan></text></g><rect width="240" height="60" x="564.6" y="316.6" class="st0" rx="6" ry="6"/><g class="st9"><text class="st14" transform="translate(629.5 340.6)"><tspan x="0" y="0">Multi</tspan></text><text class="st22" transform="translate(659.9 340.6)"><tspan x="0" y="0">m</tspan></text><text class="st14" transform="translate(670.7 340.6)"><tspan x="0" y="0">odal output</tspan></text></g><g class="st9"><text class="st6" transform="translate(612.4 358.6)"><tspan x="0" y="0">lamp </tspan></text><text class="st17" transform="translate(639.2 358.6)"><tspan x="0" y="0">c</tspan></text><text class="st6" transform="translate(645.1 358.6)"><tspan x="0" y="0">olour + haptic + sou</tspan></text><text class="st6" transform="translate(743.7 358.6)"><tspan x="0" y="0">n</tspan></text><text class="st6" transform="translate(750.2 358.6)"><tspan x="0" y="0">d</tspan></text></g><path d="m690.6 400.4-6 12-6-12z" class="st23"/><path d="m684.6 416.8 80 42-80 42-80-42z" class="st25"/><g class="st9"><text style="isolation:isolate;font-size:11px;font-family:Manrope-Bold,Manrope;font-weight:700;fill:#2e4150;letter-spacing:0" transform="translate(656.1 455.2)"><tspan x="0" y="0">T</tspan></text><text class="st1" transform="translate(662.2 455.2)"><tspan x="0" y="0">r</tspan></text><text class="st3" transform="translate(666.7 455.2)"><tspan x="0" y="0">e</tspan></text><text style="isolation:isolate;font-size:11px;font-family:Manrope-Bold,Manrope;font-weight:700;fill:#2e4150;letter-spacing:0" transform="translate(673.2 455.2)"><tspan x="0" y="0">n</tspan></text><text class="st1" transform="translate(680.1 455.2)"><tspan x="0" y="0">d </tspan></text><text class="st2" transform="translate(689.1 455.2)"><tspan x="0" y="0">ov</tspan></text><text class="st1" transform="translate(701.8 455.2)"><tspan x="0" y="0">er</tspan></text><text class="st1" transform="translate(647.2 468.4)"><tspan x="0" y="0">ti</tspan></text><text class="st1" transform="translate(655.3 468.4)"><tspan x="0" y="0">m</tspan></text><text class="st1" transform="translate(665.3 468.4)"><tspan x="0" y="0">e wi</tspan></text><text class="st1" transform="translate(686.4 468.4)"><tspan x="0" y="0">n</tspan></text><text class="st1" transform="translate(693.3 468.4)"><tspan x="0" y="0">d</tspan></text><text class="st2" transform="translate(700.1 468.4)"><tspan x="0" y="0">o</tspan></text><text class="st1" transform="translate(706.8 468.4)"><tspan x="0" y="0">w?</tspan></text></g><path d="m509.3 34.5-10.5-8.4 13-3.3-2.6 11.7Z" class="st23"/><g class="st9"><text class="st6" transform="translate(739 132.1)"><tspan x="0" y="0">stable or imp</tspan></text><text class="st6" transform="translate(804.1 132.1)"><tspan x="0" y="0">r</tspan></text><text class="st17" transform="translate(808 132.1)"><tspan x="0" y="0">o</tspan></text><text class="st6" transform="translate(814.3 132.1)"><tspan x="0" y="0">ving:</tspan></text><text class="st17" transform="translate(739 145.3)"><tspan x="0" y="0">c</tspan></text><text class="st6" transform="translate(745 145.3)"><tspan x="0" y="0">ontinue </tspan></text><text class="st6" transform="translate(786.7 145.3)"><tspan x="0" y="0">m</tspan></text><text class="st6" transform="translate(796 145.3)"><tspan x="0" y="0">oni</tspan></text><text class="st17" transform="translate(811.6 145.3)"><tspan x="0" y="0">t</tspan></text><text class="st6" transform="translate(815.8 145.3)"><tspan x="0" y="0">oring</tspan></text></g><path d="m416.7 464.8-12-6 12-6z" class="st23"/><g class="st9"><text style="isolation:isolate;font-size:11px;letter-spacing:0;font-family:Manrope-Regular,Manrope;fill:#f1480a" transform="translate(465.6 449.2)"><tspan x="0" y="0">w</tspan></text><text class="st8" transform="translate(473.8 449.2)"><tspan x="0" y="0">o</tspan></text><text class="st13" transform="translate(480.3 449.2)"><tspan x="0" y="0">r</tspan></text><text class="st8" transform="translate(484.1 449.2)"><tspan x="0" y="0">s</tspan></text><text class="st13" transform="translate(489.9 449.2)"><tspan x="0" y="0">e</tspan></text><text class="st8" transform="translate(496.1 449.2)"><tspan x="0" y="0">ning</tspan></text></g><rect width="240" height="60" x="154.5" y="428.8" rx="6" ry="6" style="fill:#fdede8"/><g class="st9"><text class="st7" transform="translate(249.3 452.8)"><tspan x="0" y="0">Es</tspan></text><text style="isolation:isolate;font-family:Manrope-Bold,Manrope;font-weight:700;fill:#f1480a;font-size:12px;letter-spacing:0" transform="translate(263 452.8)"><tspan x="0" y="0">c</tspan></text><text class="st7" transform="translate(269.9 452.8)"><tspan x="0" y="0">ala</tspan></text><text style="isolation:isolate;font-family:Manrope-Bold,Manrope;font-weight:700;fill:#f1480a;font-size:12px;letter-spacing:0" transform="translate(287.4 452.8)"><tspan x="0" y="0">t</tspan></text><text class="st7" transform="translate(292.4 452.8)"><tspan x="0" y="0">e</tspan></text></g><g class="st9"><text class="st13" transform="translate(195.8 470.8)"><tspan x="0" y="0">c</tspan></text><text class="st8" transform="translate(201.7 470.8)"><tspan x="0" y="0">ontinues in es</tspan></text><text class="st8" transform="translate(272.7 470.8)"><tspan x="0" y="0">c</tspan></text><text class="st8" transform="translate(278.8 470.8)"><tspan x="0" y="0">alation logi</tspan></text><text class="st13" transform="translate(333.9 470.8)"><tspan x="0" y="0">c</tspan></text><text class="st8" transform="translate(339.8 470.8)"><tspan x="0" y="0">.</tspan></text></g><path d="m221.7 100.6 3 13.1-12.2-5.5 9.3-7.6Z" class="st23"/><path d="m216.7 104.7-44.1-46" class="st26"/><path d="m320.4 108.8-12.5 4.8 3.6-12.9z" class="st23"/><path d="m316.5 105.4 40.4-46.7m-82.4 138.2v-19.7m0 113.7v-18.3m142.2 186.2h173.4m-49.4-112.2H355.8m328.8 53.8v-19.7m94.9 74.5c44.5-44.3 57.8-83.5 58-107 1-111.3-115.2-253.8-326.8-319.9M185 352.6C63.4 336.2-6 266.5 1 220.5c5.7-37.5 79.6-70.7 150.2-81" class="st26"/></svg>